<?xml version="1.0" encoding="UTF-8"?>
<svg width="64px" height="49px" viewBox="0 0 64 49" version="1.1" xmlns="http://www.w3.org/2000/svg" xmlns:xlink="http://www.w3.org/1999/xlink">
    <!-- Generator: Sketch 52.5 (67469) - http://www.bohemiancoding.com/sketch -->
    <title>Group</title>
    <desc>Created with Sketch.</desc>
    <g id="Symbols" stroke="none" stroke-width="1" fill="none" fill-rule="evenodd">
        <g id="CI/BNSolution/ci2">
            <g id="Group">
                <rect id="Rectangle" fill="#FFFFFF" fill-rule="nonzero" x="0" y="0" width="4" height="4"></rect>
                <rect id="Rectangle-Copy-8" fill="#FFFFFF" fill-rule="nonzero" x="30" y="0" width="4" height="4"></rect>
                <rect id="Rectangle-Copy-4" fill="#FFFFFF" fill-rule="nonzero" x="15" y="0" width="4" height="4"></rect>
                <rect id="Rectangle-Copy-9" fill="#FFFFFF" fill-rule="nonzero" x="45" y="0" width="4" height="4"></rect>
                <rect id="Rectangle-Copy-2" fill="#FFFFFF" fill-rule="nonzero" x="0" y="30" width="4" height="4"></rect>
                <rect id="Rectangle-Copy-5" fill="#FFFFFF" fill-rule="nonzero" x="15" y="30" width="4" height="4"></rect>
                <rect id="Rectangle-Copy" fill="#FFFFFF" fill-rule="nonzero" x="0" y="15" width="4" height="4"></rect>
                <rect id="Rectangle-Copy-6" fill="#FFFFFF" fill-rule="nonzero" x="15" y="15" width="4" height="4"></rect>
                <rect id="Rectangle-Copy-3" fill="#FFFFFF" fill-rule="nonzero" x="0" y="45" width="4" height="4"></rect>
                <rect id="Rectangle-Copy-14" fill="#FFFFFF" fill-rule="nonzero" x="30" y="45" width="4" height="4"></rect>
                <rect id="Rectangle-Copy-7" fill="#FFFFFF" fill-rule="nonzero" x="15" y="45" width="4" height="4"></rect>
                <rect id="Rectangle-Copy-15" fill="#FFFFFF" fill-rule="nonzero" x="45" y="45" width="4" height="4"></rect>
                <polygon id="Path" fill="#FFC000" points="58.2061281 7 39.1532033 26.8981818 29.7938719 17.24 24 23.2909091 33.3593315 32.9490909 39.1532033 39 44.9470752 32.9490909 64 13.0509091"></polygon>
            </g>
        </g>
    </g>
</svg>