<?xml version="1.0" encoding="UTF-8"?>
<svg width="100px" height="100px" viewBox="0 0 100 100" version="1.1" xmlns="http://www.w3.org/2000/svg" xmlns:xlink="http://www.w3.org/1999/xlink">
    <!-- Generator: Sketch 52.5 (67469) - http://www.bohemiancoding.com/sketch -->
    <title>BNSolution/services/services3</title>
    <desc>Created with Sketch.</desc>
    <g id="BNSolution/services/services3" stroke="none" stroke-width="1" fill="none" fill-rule="evenodd">
        <path d="M18.75,66.5 C12.9970339,66.5 8.33333333,71.1637005 8.33333333,76.9166667 L8.33333333,87.3333333 L91.6666667,87.3333333 L91.6666667,76.9166667 C91.6666667,71.1637005 87.0029661,66.5 81.25,66.5 L18.75,66.5 Z M18.75,58.1666667 L81.25,58.1666667 C91.6053391,58.1666667 100,66.5613276 100,76.9166667 L100,87.3333333 C100,91.9357062 96.2690396,95.6666667 91.6666667,95.6666667 L8.33333333,95.6666667 C3.73096042,95.6666667 0,91.9357062 0,87.3333333 L0,76.9166667 C-1.85037171e-15,66.5613276 8.39466094,58.1666667 18.75,58.1666667 Z M52.0833333,49.8333333 C39.4268078,49.8333333 29.1666667,39.5731922 29.1666667,26.9166667 C29.1666667,14.2601412 39.4268078,4 52.0833333,4 C64.7398588,4 75,14.2601412 75,26.9166667 C75,39.5731922 64.7398588,49.8333333 52.0833333,49.8333333 Z M52.0833333,41.5 C60.1374859,41.5 66.6666667,34.9708193 66.6666667,26.9166667 C66.6666667,18.8625141 60.1374859,12.3333333 52.0833333,12.3333333 C44.0291807,12.3333333 37.5,18.8625141 37.5,26.9166667 C37.5,34.9708193 44.0291807,41.5 52.0833333,41.5 Z" id="Icon/32px/Tap/Contact" fill="#FFC000" fill-rule="nonzero"></path>
    </g>
</svg>