<?xml version="1.0" encoding="UTF-8"?>
<svg width="100px" height="100px" viewBox="0 0 100 100" version="1.1" xmlns="http://www.w3.org/2000/svg" xmlns:xlink="http://www.w3.org/1999/xlink">
    <!-- Generator: Sketch 52.5 (67469) - http://www.bohemiancoding.com/sketch -->
    <title>BNSolution/services/services1</title>
    <desc>Created with Sketch.</desc>
    <g id="BNSolution/services/services1" stroke="none" stroke-width="1" fill="none" fill-rule="evenodd">
        <path d="M12.5,16.3333333 C10.1988135,16.3333333 8.33333333,18.1988135 8.33333333,20.5 L8.33333333,78.8333333 C8.33333333,81.1345198 10.1988135,83 12.5,83 L87.5,83 C89.8011865,83 91.6666667,81.1345198 91.6666667,78.8333333 L91.6666667,20.5 C91.6666667,18.1988135 89.8011865,16.3333333 87.5,16.3333333 L12.5,16.3333333 Z M12.5,8 L87.5,8 C94.4035594,8 100,13.5964406 100,20.5 L100,78.8333333 C100,85.7368927 94.4035594,91.3333333 87.5,91.3333333 L12.5,91.3333333 C5.59644063,91.3333333 0,85.7368927 0,78.8333333 L0,20.5 C0,13.5964406 5.59644063,8 12.5,8 Z M18.7660878,32.4510131 L43.7982633,46.7551134 C47.6411716,48.951061 52.3588284,48.951061 56.2017367,46.7551134 L81.2339122,32.4510131 C83.2319016,31.3093049 83.9260546,28.7640771 82.7843464,26.7660878 C81.6426382,24.7680984 79.0974105,24.0739454 77.0994211,25.2156536 L52.0672456,39.5197539 C50.7862761,40.2517364 49.2137239,40.2517364 47.9327544,39.5197539 L22.9005789,25.2156536 C20.9025895,24.0739454 18.3573618,24.7680984 17.2156536,26.7660878 C16.0739454,28.7640771 16.7680984,31.3093049 18.7660878,32.4510131 Z" id="Icon/32px/Tap/Mail" fill="#FFC000" fill-rule="nonzero"></path>
    </g>
</svg>