<?xml version="1.0" encoding="UTF-8"?>
<svg width="100px" height="100px" viewBox="0 0 100 100" version="1.1" xmlns="http://www.w3.org/2000/svg" xmlns:xlink="http://www.w3.org/1999/xlink">
    <!-- Generator: Sketch 52.5 (67469) - http://www.bohemiancoding.com/sketch -->
    <title>BNSolution/services/services4</title>
    <desc>Created with Sketch.</desc>
    <g id="BNSolution/services/services4" stroke="none" stroke-width="1" fill="none" fill-rule="evenodd">
        <g id="Group" transform="translate(4.000000, 0.000000)" fill="#FFC000" fill-rule="nonzero">
            <path d="M49.0800588,81.5091852 L60.6185203,69.9707237 L60.6185203,11.6185203 C60.6185203,9.49434819 58.8965386,7.77236646 56.7723665,7.77236646 L41.3877511,7.77236646 C39.263579,7.77236646 37.5415972,9.49434819 37.5415972,11.6185203 L37.5415972,69.9707237 L49.0800588,81.5091852 Z M41.3877511,0.0800587699 L56.7723665,0.0800587699 C63.1448828,0.0800587699 68.310828,5.24600396 68.310828,11.6185203 L68.310828,73.1569818 L49.0800588,92.3877511 L29.8492895,73.1569818 L29.8492895,11.6185203 C29.8492895,5.24600396 35.0152347,0.0800587699 41.3877511,0.0800587699 Z M37.5415972,23.1569818 L37.5415972,30.8492895 L60.6185203,30.8492895 L60.6185203,23.1569818 L37.5415972,23.1569818 Z" id="Rectangle" transform="translate(49.080059, 46.233905) rotate(45.000000) translate(-49.080059, -46.233905) "></path>
            <path d="M4.45646626,96.1538462 C1.99522791,96.1538462 0,94.4318644 0,92.3076923 C0,90.1835202 1.99522791,88.4615385 4.45646626,88.4615385 L87.851226,88.4615385 C90.3124644,88.4615385 92.3076923,90.1835202 92.3076923,92.3076923 C92.3076923,94.4318644 90.3124644,96.1538462 87.851226,96.1538462 L4.45646626,96.1538462 Z" id="Line-19"></path>
        </g>
    </g>
</svg>