<?xml version="1.0" encoding="UTF-8"?>
<svg width="100px" height="100px" viewBox="0 0 100 100" version="1.1" xmlns="http://www.w3.org/2000/svg" xmlns:xlink="http://www.w3.org/1999/xlink">
    <!-- Generator: Sketch 52.5 (67469) - http://www.bohemiancoding.com/sketch -->
    <title>BNSolution/services/services2</title>
    <desc>Created with Sketch.</desc>
    <g id="BNSolution/services/services2" stroke="none" stroke-width="1" fill="none" fill-rule="evenodd">
        <path d="M8.33333333,58 L8.33333333,78.8333333 C8.33333333,81.1345198 10.1988135,83 12.5,83 L87.5,83 C89.8011865,83 91.6666667,81.1345198 91.6666667,78.8333333 L91.6666667,58 L70.8161116,58 L70.8161116,69.5042454 C70.8161116,70.0565301 70.3683964,70.5042454 69.8161116,70.5042454 L30.1836131,70.5042454 C29.6313283,70.5042454 29.1836131,70.0565301 29.1836131,69.5042454 L29.1836131,58 L8.33333333,58 Z M0.016235399,49.6666667 L11.7672743,13.7425266 C12.8877923,10.3169871 16.0834904,8 19.6876382,8 L80.3099464,8 C83.9164267,8 87.1136375,10.3199373 88.2322763,13.7485446 L99.9511468,49.6666667 L100,49.6666667 L100,78.8333333 C100,85.7368927 94.4035594,91.3333333 87.5,91.3333333 L12.5,91.3333333 C5.59644063,91.3333333 5.55111512e-15,85.7368927 0,78.8333333 L0,49.6666667 L0.016235399,49.6666667 Z M8.78407044,49.6666667 L33.3502797,49.6666667 C35.6514662,49.6666667 37.5169464,51.5321469 37.5169464,53.8333333 L37.5169464,62.170912 L62.4827783,62.170912 L62.4827783,53.8333333 C62.4827783,51.5321469 64.3482585,49.6666667 66.649445,49.6666667 L91.1854875,49.6666667 L80.3099464,16.3333333 L19.6876382,16.3333333 L8.78407044,49.6666667 Z M33.3333333,33 C31.0321469,33 29.1666667,31.1345198 29.1666667,28.8333333 C29.1666667,26.5321469 31.0321469,24.6666667 33.3333333,24.6666667 L66.6666667,24.6666667 C68.9678531,24.6666667 70.8333333,26.5321469 70.8333333,28.8333333 C70.8333333,31.1345198 68.9678531,33 66.6666667,33 L33.3333333,33 Z" id="Icon/32px/Tap/Drive" fill="#FFC000" fill-rule="nonzero"></path>
    </g>
</svg>